<svg id="Layer_1" enable-background="new 0 0 512 512" height="512" viewBox="0 0 512 512" width="512" xmlns="http://www.w3.org/2000/svg"><g><g><g><g><path d="m118.865 194.269c-9.068 7.311-20.425 19.029-23.141 35.285-3.834 22.944 13.247 32.768 8.148 52.298-5.605 21.47-29.461 21.908-36.881 44.388-5.074 15.375.768 31.283 6.702 42.555 46.843.983 267.724.983 314.568 0 5.934-11.272 11.777-27.18 6.702-42.555-7.419-22.48-31.276-22.918-36.881-44.388-5.098-19.53 11.983-29.354 8.148-52.298-2.717-16.255-14.073-27.973-23.141-35.285-31.785.067-192.438.067-224.224 0z" fill="#4f6d8f"/><g><path d="m394.964 326.24c-7.419-22.48-31.276-22.918-36.881-44.388-5.098-19.53 11.983-29.354 8.148-52.298-2.717-16.255-14.073-27.973-23.141-35.285-6.053.013-16.789.023-30.409.031 9.062 7.313 20.391 19.02 23.104 35.254 3.834 22.944-13.247 32.768-8.148 52.298 5.605 21.47 29.461 21.908 36.881 44.388 5.074 15.375-.768 31.283-6.702 42.555-21.644.454 5.246.529 30.446 0 5.934-11.272 11.776-27.18 6.702-42.555z" fill="#455e7e"/></g><path d="m414.276 512v-103.683c0-22.765-13.018-43.253-33.044-53.102-2.331-1.146-11.965 2.906-14.476 2.061l-65.697-29.586-27.97-4.289c-8.029-2.702-13.437-10.227-13.437-18.699v-32.126h-57.57v32.126c0 8.471-19.476 20.943-27.505 23.645l-13.679-.657-72.906 24.531c-24.087 8.105-40.311 30.682-40.311 56.096v93.534c0 5.605 4.544 10.149 10.149 10.149z" fill="#f6df7f"/><g><path d="m293.606 350.65 49.913 16.795c24.087 8.105 40.311 30.682 40.311 56.096v88.459h30.446v-103.683c0-25.414-16.224-47.991-40.311-56.096l-72.906-24.531c-1.189 4.251-2.522 8.644-4.017 13.161-1.118 3.379-2.267 6.645-3.436 9.799z" fill="#efd06f"/></g><g><path d="m223.366 512v-84.712c0-4.204 3.408-7.611 7.611-7.611 4.204 0 7.611 3.408 7.611 7.611v84.712z" fill="#fcf8e1"/></g><path d="m301.059 327.69c-4.55 16.863-12.793 40.11-28.335 64.895-13.305 21.218-27.848 37.007-39.727 48.067-1.149 1.07-2.912 1.095-4.089.057-11.754-10.367-26.49-25.602-39.841-46.575-16.319-25.636-24.174-49.8-28.171-66.444z" fill="#bdd8fc"/><path d="m301.059 327.69h-55.031c2.167 5.054 6.397 9.103 11.837 10.934l35.733 12.023c3.224-8.461 5.644-16.224 7.461-22.957z" fill="#9dc7fb"/><path d="m230.978 358.539c27.743 0 52.707-11.89 70.081-30.849l-27.97-4.289c-8.029-2.702-13.437-10.228-13.437-18.698v-32.127h-72.57v32.127c0 8.471-5.408 15.997-13.437 18.698l-12.747 4.289c17.373 18.959 42.337 30.849 70.08 30.849z" fill="#f1ccbd"/><path d="m257.865 338.624 20.907 7.035c8.313-4.847 15.825-10.918 22.287-17.969l-12.747-4.289c-3.619-1.354-10.315-5.103-12.467-12.583-.633-1.939-.97-3.998-.97-6.115v-32.126h-30.446v47.349c-.001 8.47 5.407 15.996 13.436 18.698z" fill="#eaad9c"/><path d="m414.276 512v-103.683c0-22.764-13.023-43.243-33.048-53.093l-25.969 28.977c-8.572 9.568-13.307 21.948-13.307 34.792v93.007z" fill="#bdd8fc"/><g><path d="m414.231 406.058c-.645-20.532-12.881-40.972-32.996-50.831-.002-.001-.005-.002-.007-.004l-19.726 22.011c13.826 11.01 22.328 27.913 22.328 46.305v88.461h30.446v-103.683c0-.756-.016-1.508-.045-2.259z" fill="#9dc7fb"/></g><path d="m57.828 512c-5.605 0-10.149-4.544-10.149-10.149v-93.534c0-22.764 13.023-43.243 33.048-53.093l25.969 28.977c8.572 9.568 13.307 21.948 13.307 34.792v93.007z" fill="#bdd8fc"/></g><g><path d="m120.004 465.838h221.948v15.223h-221.948z" fill="#fff"/></g></g><g><path d="m230.978 305.812c-15.788 0-30.702 1.019-43.898-5.636-31.872-16.071-53.732-49.097-53.732-87.229v-59.441h195.262v59.441c0 38.131-21.86 71.157-53.732 87.228-13.198 6.656-43.9 5.637-43.9 5.637z" fill="#f1ccbd"/><path d="m298.163 153.507v59.441c.206 6.596.512 38.476-23.695 63.76-21.82 22.791-55.309 31.609-87.386 23.465 8.538 4.221 19.995 8.46 33.876 9.895 3.512.363 6.861.514 10.021.511 53.92 0 97.631-43.711 97.631-97.631v-59.441z" fill="#eaad9c"/><g><g><path d="m275.508 231.077c-4.204 0-7.612-3.408-7.612-7.611v-15.754c0-4.204 3.408-7.611 7.612-7.611s7.612 3.408 7.612 7.611v15.754c0 4.203-3.408 7.611-7.612 7.611z" fill="#455e7e"/></g><g><path d="m186.448 231.077c-4.204 0-7.611-3.408-7.611-7.611v-15.754c0-4.204 3.408-7.611 7.611-7.611 4.204 0 7.611 3.408 7.611 7.611v15.754c0 4.203-3.408 7.611-7.611 7.611z" fill="#455e7e"/></g></g><g><path d="m230.985 281.896c-8.642 0-15.054-3.602-18.173-5.812-3.43-2.43-4.24-7.181-1.81-10.611 2.431-3.431 7.181-4.24 10.611-1.81 1.684 1.193 5.214 3.17 9.946 3 4.181-.15 7.294-1.941 8.777-2.994 3.427-2.436 8.178-1.63 10.613 1.796 2.435 3.427 1.631 8.178-1.796 10.613-3.507 2.492-9.312 5.521-17.049 5.798-.377.013-.751.02-1.119.02z" fill="#eaad9c"/></g><path d="m335.297 213.593h-6.688v-37.78h6.688c10.433 0 18.89 8.457 18.89 18.89 0 10.432-8.457 18.89-18.89 18.89z" fill="#f1ccbd"/><path d="m126.659 213.593h6.688v-37.78h-6.688c-10.433 0-18.89 8.457-18.89 18.89 0 10.432 8.457 18.89 18.89 18.89z" fill="#eaad9c"/><g><path d="m325.586 183.917h-189.216c-12.54 0-22.706-10.166-22.706-22.706 0-12.54 10.166-22.706 22.706-22.706h189.215c12.54 0 22.706 10.166 22.706 22.706 0 12.54-10.165 22.706-22.705 22.706z" fill="#efd06f"/><path d="m325.586 138.505h-30.446c12.54 0 22.706 10.166 22.706 22.706 0 12.54-10.166 22.706-22.706 22.706h30.446c12.54 0 22.706-10.166 22.706-22.706-.001-12.54-10.166-22.706-22.706-22.706z" fill="#ebc56a"/><path d="m252.194 24.976h-42.431c-40.533 0-73.392 32.859-73.392 73.392v40.137h158.769l15.446-7.318v-32.819c-.001-40.533-17.859-73.392-58.392-73.392z" fill="#f6df7f"/><path d="m252.194 24.976h-30.446c40.533 0 73.392 32.859 73.392 73.392v40.137h30.446v-40.137c-.001-40.533-32.859-73.392-73.392-73.392z" fill="#efd06f"/><path d="m196.162 85.299v-64.107c0-11.165 8.635-20.314 19.591-21.133.529-.039 1.181.059 1.719.059l26.961 2.352c11.704 0 6.36 7.018 6.36 18.722v49.107c0 2.209-1.791 4-4 4l-11.446 15h-35.185c-2.209 0-4-1.791-4-4z" fill="#efd06f"/><path d="m244.601 0h-27.247c-.54 0-1.07.041-1.599.081 10.954.82 19.593 9.947 19.593 21.111v68.107h26.446c2.209 0 4-1.791 4-4v-64.107c-.001-11.704-9.489-21.192-21.193-21.192z" fill="#ebc56a"/></g></g></g><g><g><path d="m405.03 485.307v-85.885c0-1.521-.763-2.924-2.004-3.763-12.398-8.372-20.582-22.734-20.582-39.056 0-15.433 7.316-29.113 18.593-37.634 1.652-1.248 3.993-.027 3.993 2.072v25.462c0 4.436 3.519 8.032 7.86 8.032h20.984c4.341 0 7.86-3.596 7.86-8.032v-25.462c0-2.099 2.342-3.32 3.993-2.072 11.277 8.522 18.593 22.202 18.593 37.634 0 16.322-8.184 30.684-20.582 39.056-1.242.838-2.004 2.242-2.004 3.763v85.885z" fill="#ebf4ff"/><g><path d="m445.728 318.969c-1.651-1.248-3.993-.027-3.993 2.072v22.243c1.226 4.222 1.897 8.689 1.897 13.319 0 16.322-8.184 30.684-20.582 39.056-1.242.838-2.004 2.242-2.004 3.763v85.885h20.689v-85.886c0-1.521.763-2.924 2.004-3.763 12.398-8.372 20.582-22.734 20.582-39.056 0-15.431-7.316-29.111-18.593-37.633z" fill="#dceafc"/></g><path d="m436.267 512h-41.87c-6.491 0-11.754-5.262-11.754-11.754v-57.972c0-6.491 5.262-11.754 11.754-11.754h41.87c15.384 0 27.855 12.471 27.855 27.855v25.769c0 15.385-12.471 27.856-27.855 27.856z" fill="#f1ccbd"/><path d="m436.267 430.521h-30.446c15.384 0 27.855 12.471 27.855 27.855v25.769c0 15.384-12.471 27.855-27.855 27.855h30.446c15.384 0 27.855-12.471 27.855-27.855v-25.769c0-15.384-12.471-27.855-27.855-27.855z" fill="#eaad9c"/></g></g></g></svg>