<svg id="Capa_1" enable-background="new 0 0 512 512" viewBox="0 0 512 512" xmlns="http://www.w3.org/2000/svg"><g><path d="m256 43.402-140.351 97.081v63.295c0 126.46 82.559 175.996 82.559 175.996h57.792z" fill="#a46a5a"/><g><path d="m296.81 319.89-90.345-.541v20.679c0 14.001-8.83 26.481-22.033 31.141l-18.57 6.554-1.106 55.977h190.177z" fill="#fbbd80"/></g><path d="m305.536 340.028v-51.07h-99.071v30.392c3.798 1.705 7.659 3.297 11.65 4.631 20.239 6.766 39.635 7.617 57.735 4.59 6.933-1.159 13.175 4.436 13.175 11.465 0 21.001 13.244 39.719 33.048 46.707l5.497-15.574c-13.205-4.66-22.034-17.14-22.034-31.141z" fill="#f4aa73"/><path d="m404.776 406.768-45.415-13.032-93.393 47.783-132.696-52.293-34.11 12.039c-19.805 6.99-33.049 25.709-33.049 46.711v39.257c0 13.679 11.089 24.768 24.768 24.768h330.238c2.895 0 5.674-.496 8.256-1.408l8.45-15.6v-45.22c0-21.003-13.244-36.016-33.049-43.005z" fill="#fbf4db"/><path d="m412.838 401.264-66.7-23.541c-21.183 26.392-53.662 43.33-90.138 43.33s-68.955-16.938-90.138-43.33l-32.59 11.502c26.764 39.141 71.732 64.852 122.728 64.852 44.748 0 84.851-19.799 112.089-51.095l39.251 13.851c13.204 4.66 22.034 17.139 22.034 31.141v62.618c9.598-3.412 16.512-12.591 16.512-23.359v-39.257c.001-21.002-13.243-39.722-33.048-46.712z" fill="#f8ebcc"/><path d="m305.536 234.967v111.914c0 72.9 57.792 99.071 57.792 165.119l8.632-14.879v-262.154z" fill="#c6805d"/><path d="m395.993 130.874-57.433-7.034v223.043c0 28.142 5.005 47.451 10.8 69.809 6.548 25.259 13.968 53.893 13.968 95.308v.001h1.032l31.992-.047v-371.603c-.001-3.221-.12-6.319-.359-9.477z" fill="#a46a5a"/><g><path d="m165.185 90.815v57.792c0 13.679-11.089 24.768-24.768 24.768h-2.951c-10.796 0-20.635 7.768-21.71 18.51-1.237 12.354 8.431 22.769 20.533 22.769h12.801c3.806 49.864 41.603 90.22 90.303 97.793 0 0 106.502.498 106.502-103.87v-117.762z" fill="#ffd18d"/></g><path d="m374.534 173.375h-2.951c-13.679 0-24.768-11.089-24.768-24.768v-57.792h-155.933c32.708 28.613 73.953 48.019 118.559 55.896 11.983 2.116 20.862 12.262 20.862 24.43v35.257c0 53.663-39.47 98.111-90.91 106.049 5.41.841 10.959 1.278 16.607 1.278 56.488 0 102.681-43.667 106.91-99.071h12.801c12.102 0 21.77-10.415 20.533-22.769-1.076-10.742-10.914-18.51-21.71-18.51z" fill="#fbbd80"/><g><path d="m256 256.067c-12.384 0-23.816-3.975-30.565-10.634-3.249-3.201-3.281-8.429-.081-11.674 3.201-3.249 8.441-3.281 11.674-.081 2.749 2.713 9.369 5.878 18.971 5.878s16.222-3.165 18.971-5.878c3.233-3.201 8.474-3.169 11.674.081 3.201 3.245 3.169 8.474-.081 11.674-6.747 6.659-18.179 10.634-30.563 10.634z" fill="#f4aa73"/></g><g><path d="m206.464 198.276c-4.563 0-8.256-3.697-8.256-8.256v-8.256c0-4.559 3.693-8.256 8.256-8.256s8.256 3.697 8.256 8.256v8.256c0 4.559-3.692 8.256-8.256 8.256z" fill="#845252"/></g><g><path d="m305.536 198.276c-4.563 0-8.256-3.697-8.256-8.256v-8.256c0-4.559 3.693-8.256 8.256-8.256s8.256 3.697 8.256 8.256v8.256c0 4.559-3.693 8.256-8.256 8.256z" fill="#845252"/></g><g><path d="m198.2 165.252c-4.096 0-7.651-3.044-8.183-7.208-.572-4.523 2.62-8.659 7.143-9.236l18.552-2.37c4.563-.605 8.659 2.624 9.24 7.139.572 4.523-2.62 8.659-7.143 9.236l-18.552 2.37c-.355.049-.71.069-1.057.069z" fill="#a46a5a"/></g><g><path d="m313.8 165.252c-.347 0-.701-.02-1.056-.069l-18.552-2.37c-4.523-.576-7.716-4.712-7.143-9.236.581-4.515 4.733-7.732 9.24-7.139l18.552 2.37c4.523.576 7.716 4.713 7.143 9.236-.533 4.164-4.089 7.208-8.184 7.208z" fill="#a46a5a"/></g><path d="m115.649 140.483v.038c46.132-1.027 85.846-19.277 112.755-46.06l-64.438-59.773c-29.552 25.729-48.317 63.533-48.317 105.795z" fill="#c6805d"/><path d="m389.766 98.256-182.962-89.199c-15.832 5.964-30.302 14.714-42.838 25.629 37.922 59.641 108.819 99.837 190.141 99.837 14.288 0 28.36-1.284 41.886-3.65-.756-11.289-2.964-22.214-6.227-32.617z" fill="#a46a5a"/><path d="m356.559 101.498c11.143 0 22.415-1.108 33.206-3.242-17.878-56.901-70.957-98.256-133.765-98.256v.132c-17.326 0-33.896 3.162-49.196 8.926 27.636 56.229 85.949 92.44 149.755 92.44z" fill="#845252"/></g><g/><g/><g/><g/><g/><g/><g/><g/><g/><g/><g/><g/><g/><g/><g/></svg>