<svg id="Capa_1" enable-background="new 0 0 497 497" height="512" viewBox="0 0 497 497" width="512" xmlns="http://www.w3.org/2000/svg"><g><path d="m193.208 358.287 171.817 19.842s41.603-68.503 47.341-81.002c0 0 9.286-17.566 9.286-42.958 0-14.767-3.126-34.517-12.161-61.96-10.891-33.081-26.092-79.251-33.266-101.041-11.035-33.516-32.592-69.951-79.999-84.564z" fill="#e27c48"/><path d="m434.853 497h29.56c4.188 0 7.58-3.436 7.503-7.623-1-54.485-12.937-93.264-38.818-114.011-7.526-6.033-26.045-13.271-45.756-20.129l-.048.415-16.583 6.417-21.108-19.498c-21.113-7.372-38.764-15.692-38.764-15.692h-124.678s-5.919 2.791-15 6.571l-86.527 36.032-29.619 35.084v92.434h271.695l89.143-15.483z" fill="#9ec8fc"/><path d="m95.329 370.004c24.122 28.473 28.208 50.271 17.59 72.818-2.339 4.967 1.294 10.679 6.784 10.679h28.037c2.602 0 5.032-1.348 6.392-3.566 15.354-25.039 17.029-46.696 17.029-67.362v-18.482-30.641c-7.984 3.324-18.413 7.412-29.417 11.043-28.006 9.241-66.162 21.51-77.843 30.873-25.881 20.746-37.818 59.525-38.818 114.011-.077 4.187 3.315 7.623 7.503 7.623h22.428c.001-94.504 29.62-121.633 40.315-126.996z" fill="#80b6fc"/><path d="m415.853 449.558c0-7.895-4.381-15.168-11.41-18.764-3.582-1.832-7.885-3.814-12.733-5.634 0-19.06 0-41.367 0-48.09 0-7.095-3.284-13.424-8.416-17.548l-.02-.027c2.072-.158 3.774-1.747 4.018-3.843l.048-.415c-10.882-3.786-22.125-7.457-32.086-10.744-1.906-.629-3.791-1.272-5.653-1.922l1.524 13.081c.244 2.096 1.946 3.684 4.019 3.843l-.02.027c-5.131 4.124-8.416 10.452-8.416 17.548v42.496c-.002 0-.005.001-.008.001-1.043.168-2.087.353-3.134.572-9.811 2.057-16.858 10.681-16.858 20.704v56.157h19l70.143-15.483v-31.959z" fill="#80b6fc"/><path d="m402.295 344.522-6.584-9.059-16.584 9.059c-5.131 4.124-8.416 10.452-8.416 17.548 0 12.427 10 78.089 10 78.089h30s0-65.663 0-78.089c0-7.096-3.285-13.424-8.416-17.548z" fill="#edf6ff"/><path d="m389.126 344.522 6.584-9.059-7.5-10.319-14.084 19.378c-5.131 4.124-8.416 10.452-8.416 17.548v78.089h15s0-65.663 0-78.089c.001-7.096 3.285-13.424 8.416-17.548z" fill="#cde2ff"/><path d="m407.015 292.239h-26.781l-.655 42.287 28.011-5 3.776-32.399c.303-2.603-1.731-4.888-4.351-4.888z" fill="#9ec8fc"/><path d="m384.127 325.652-3.894-33.413h-10.827c-2.62 0-4.654 2.285-4.351 4.887l5.072 43.526c.257 2.208 2.128 3.874 4.351 3.874h27.464c2.223 0 4.094-1.665 4.351-3.874l1.297-11.126h-19.112c-2.223 0-4.093-1.665-4.351-3.874z" fill="#80b6fc"/><path d="m434.853 434.558c0-7.895-4.381-15.168-11.41-18.764-12.761-6.529-34.683-14.951-57.74-11.228-2.781 2.313-9.992 6.267-9.992 11.276l5 81.157h74.143v-62.441z" fill="#d8ab8c"/><path d="m405.981 469.585-45.271-6.889v-18.827l43.015 6.546c.382.058.762.086 1.138.086 3.644 0 6.84-2.66 7.405-6.373.623-4.095-2.191-7.92-6.287-8.543l-45.271-6.889v-12.853c0-5.01 2.211-8.963 4.992-11.276-1.043.168-2.087.353-3.134.572-9.811 2.057-16.858 10.681-16.858 20.704v.571l2.224 7.028-2.224 8.146v18.827l3 8.443-3 6.73v21.412h15v-19.131l43.015 6.546c.382.058.762.086 1.138.086 3.644 0 6.84-2.66 7.405-6.373.624-4.095-2.191-7.919-6.287-8.543z" fill="#c7865b"/><path d="m345.71 460.414v15.173l15 2.282v-15.173z" fill="#b36d3c"/><path d="m345.71 426.413v15.174l15 2.282v-15.173z" fill="#b36d3c"/><path d="m114.432 139.274c-2.061 6.385 11.039 17.077 15.545 12.106 4.069-4.489 13.243-12.929 18.748-17.823 25.125-22.334 70.794-37.409 108.831-57.258 18.092-9.441 34.547-27.938 38.67-31.148v-38.547c-13.645-4.206-29.432-6.604-47.726-6.604-37.104 0-63.894 9.865-83.421 24.671-14.729 19.365-28.071 44.986-33.163 60.6-4.037 12.378-11.468 35.366-17.484 54.003z" fill="#e27c48"/><path d="m162.74 438.5c2.602 0 5.032-1.348 6.392-3.566 15.354-25.039 17.029-46.696 17.029-67.362v-18.482l110.065-69.615v-234.325c-4.124 3.211-20.578 15.708-38.67 25.148-38.037 19.849-83.706 34.924-108.831 57.258-5.505 4.893-14.679 13.334-18.748 17.823-4.506 4.971-12.606.279-10.545-6.106 6.017-18.636 13.448-41.624 17.484-54.003 5.092-15.614 17.175-43.018 28.163-60.6-23.55 17.856-36.535 42.9-44.304 66.497-7.174 21.79-29.471 89.515-38.763 117.736-7.708 23.41-12.378 48.769-12.378 61.366 0 32.358 10.821 49.472 40.695 84.734 24.122 28.473 28.208 50.271 17.59 72.818-2.339 4.967 1.294 10.679 6.784 10.679z" fill="#dd552d"/><path d="m171.161 367.572c0-30.92-7.991-48.745-23.245-63.711-32.77-32.153-41.018-84.687-41.018-96.659v-10.885c0-3.101-4.338-3.823-5.338-.887-1.404 4.119-2.969 8.745-4.547 13.473-7.804 23.378-12.378 48.769-12.378 61.366 0 32.358 10.821 44.472 40.695 79.734 27.901 32.933 28.996 61.936 11.538 88.496 25.01-5.612 34.293-50.975 34.293-70.927z" fill="#e27c48"/><path d="m186.161 340.246v8.844c0 65.427 41.002 112.8 56.5 128.37 3.222 3.237 8.455 3.237 11.677 0 15.499-15.57 56.5-62.943 56.5-128.37 0-4.086 0-15.983 0-27.844z" fill="#d8ab8c"/><path d="m186.161 292.239v48.007c17.025 13.327 35.561 21.257 52.339 21.257 23.676 0 50.85-15.783 72.339-40.258 0-14.53 0-29.006 0-29.006z" fill="#c7865b"/><path d="m296.154 28.246c0 42.189-41.989 60.751-82.708 78.861l-24.754 11.401c-13.988 6.902-26.613 14.383-35.775 23.569 0 25.372-5 50.222-5 53.553 0 70.838 59.886 135.873 100.584 135.873 48.071 0 110.584-65.035 110.584-135.873 0-5.975 0-15.579 0-38.85 0-11.402-3.66-21.884-9.215-31.923l-11.922-18.046c-18.282-24.533-41.794-48.117-41.794-78.565z" fill="#d8ab8c"/><path d="m152.916 195.63c0-3.331 0-28.181 0-53.553-9.271 9.295-15 20.333-15 34.286v19.267c0 70.838 62.513 135.873 110.584 135.873-40.698 0-95.584-65.035-95.584-135.873z" fill="#c7865b"/><path d="m337.946 106.811c-7.192-2.259-15.701-3.373-25.704-3.373-13.455 0-32.135 1.969-44.719 11.351-3.321 2.476-4.006 7.175-1.53 10.495 1.472 1.976 3.731 3.018 6.019 3.018 1.559 0 3.131-.483 4.477-1.487 7.246-5.401 19.943-8.376 35.754-8.376 12.996 0 22.87 2.164 29.35 6.433 2.586 1.706 5.842 1.599 8.272-.011-3.401-6.146-7.505-12.126-11.919-18.05z" fill="#b36d3c"/><path d="m220.512 126.814c1.346 1.004 2.918 1.487 4.477 1.487 2.287 0 4.547-1.042 6.019-3.018 2.476-3.32 1.791-8.02-1.53-10.495-4.692-3.498-10.231-5.963-16.031-7.682-8.434 3.751-16.812 7.484-24.753 11.403 13.974.458 25.184 3.361 31.818 8.305z" fill="#b36d3c"/><path d="m245.478 236.618c14.896-5.881 17.184-12.185 13.718-22.936l-7.855-24.364c-3.907-12.117-21.774-12.117-25.681 0l-7.855 24.364c-3.466 10.75-1.178 17.055 13.718 22.936 4.541 1.794 9.413 1.794 13.955 0z" fill="#c7865b"/><path d="m255.478 226.618c14.896-5.881 17.184-12.185 13.718-22.936l-7.855-24.364c-3.907-12.117-21.774-12.117-25.681 0l-7.855 24.364c-3.466 10.75-1.178 17.055 13.718 22.936 4.541 1.794 9.413 1.794 13.955 0z" fill="#e0bba4"/><path d="m312.242 140.939c-12.8 0-24.851 1.821-33.987 6.153-1.617 4.27-7.12 14.28-6.24 20.117 4.054 26.9 21.164 41.695 50.227 41.695 10.487 0 24.495-7.262 31.739-11.327 3.332-6.086 5.103-13.253 5.103-21.214 0-25.247-17.779-35.424-46.842-35.424z" fill="#edf6ff"/><path d="m184.758 140.939c-11.619 0-21.428 1.633-29.025 5.198-1.843 4.304-7.817 14.352-7.817 20.226 0 25.247 17.779 42.541 46.842 42.541 11.38 0 25.917-7.278 33.566-11.653 3.269-5.65 5.501-12.348 6.661-20.042 4.053-26.901-21.164-36.27-50.227-36.27z" fill="#edf6ff"/><path d="m277.016 162.208c-.88-5.837-.377-10.847 1.24-15.117-11.608 5.504-18.509 15.064-16.24 30.117 4.054 26.9 21.164 41.695 50.227 41.695 19.899 0 34.505-8.11 41.739-21.327-7.243 4.065-16.251 6.327-26.739 6.327-29.064 0-46.173-14.794-50.227-41.695z" fill="#cde2ff"/><path d="m152.916 161.363c0-5.874.974-10.922 2.817-15.226-11.405 5.354-17.817 15.072-17.817 30.226 0 25.247 17.779 42.541 46.842 42.541 20.751 0 35.403-7.547 43.566-21.653-7.648 4.375-17.186 6.653-28.566 6.653-29.063-.001-46.842-17.295-46.842-42.541z" fill="#cde2ff"/><path d="m200.847 193.895c-4.143 0-7.5-3.357-7.5-7.5v-15.143c0-4.143 3.357-7.5 7.5-7.5s7.5 3.357 7.5 7.5v15.143c0 4.142-3.358 7.5-7.5 7.5z" fill="#80b6fc"/><path d="m296.153 193.895c-4.143 0-7.5-3.357-7.5-7.5v-15.143c0-4.143 3.357-7.5 7.5-7.5s7.5 3.357 7.5 7.5v15.143c0 4.142-3.357 7.5-7.5 7.5z" fill="#80b6fc"/><g fill="#b36d3c"><path d="m312.242 133.438c-16.472 0-38.591 2.886-50.423 16.634-3.437 3.993-5.722 8.547-6.87 13.611-2.03-.618-4.195-.952-6.45-.952s-4.419.334-6.45.952c-1.148-5.064-3.433-9.618-6.87-13.611-11.832-13.748-33.951-16.634-50.423-16.634-44.914 0-54.342 23.343-54.342 42.925 0 29.931 21.838 50.04 54.342 50.04 31.632 0 51.863-16.179 57.229-45.628 1.732-2.802 5.559-3.044 6.513-3.044s4.781.243 6.513 3.044c5.366 29.448 25.597 45.628 57.229 45.628 32.504 0 54.342-20.109 54.342-50.04.002-19.582-9.426-42.925-54.34-42.925zm-84.674 42.654c-3.531 23.431-17.935 35.312-42.811 35.312-24.267 0-39.342-13.427-39.342-35.04 0-13.001 4.472-27.925 39.342-27.925 18.847 0 32.716 4.056 39.053 11.419 3.553 4.127 4.782 9.437 3.758 16.234zm84.674 35.311c-24.876 0-39.279-11.881-42.811-35.312-1.023-6.797.205-12.106 3.758-16.234 6.337-7.363 20.206-11.419 39.053-11.419 18.316 0 39.342 3.174 39.342 27.925 0 21.614-15.075 35.04-39.342 35.04z"/><path d="m248.5 280.357c-17.031 0-33.119-5.212-45.299-14.675-3.271-2.542-3.862-7.254-1.321-10.524 2.542-3.271 7.254-3.861 10.524-1.321 19.902 15.465 52.289 15.465 72.191 0 3.271-2.54 7.982-1.951 10.524 1.321 2.541 3.271 1.949 7.982-1.321 10.524-12.179 9.464-28.267 14.675-45.298 14.675z"/></g></g></svg>