<svg id="Capa_1" enable-background="new 0 0 512 512" viewBox="0 0 512 512" xmlns="http://www.w3.org/2000/svg"><g><g><path d="m233.996 386.753h-96.445l47.198 125.073h2.049z" fill="#f8f6f6"/><g fill="#ebebeb"><path d="m203.09 480.918h-34.633l16.292 30.908h2.049z"/><path d="m122.96 398.029c-10.183 0-27.221-6.945-27.221-6.945-41.227 12.534-71.228 50.85-71.228 96.173v14.998c0 5.286 4.285 9.571 9.571 9.571h86.869z"/><path d="m240.078 399.978 10.517 111.848h84.844c5.286 0 9.571-4.285 9.571-9.571v-14.998c0-44.263-28.614-81.843-68.353-95.251z"/></g><path d="m131.84 480.921h-107.124c-.13 2.096-.204 4.207-.204 6.336v14.998c0 5.286 4.285 9.571 9.571 9.571h86.869z" fill="#e2e2e2"/><path d="m298.428 402.431c9.925 15.58 15.677 34.078 15.677 53.921v14.998c0 5.286-4.285 9.571-9.571 9.571h-65.178l11.239 30.905h86.289c5.286 0 8.126-4.285 8.126-9.571v-14.998c0-35.665-18.578-66.988-46.582-84.826z" fill="#e2e2e2"/><path d="m139.37 340.162v42.704c0 25.603 20.755 46.358 46.358 46.358h.091c25.603 0 46.358-20.755 46.358-46.358v-42.704z" fill="#ffe5c2"/><path d="m139.387 340.022v42.704c0 25.603 20.755 46.358 46.358 46.358h.091c25.603 0 46.358-20.755 46.358-46.358v-42.704z" fill="#ffe5c2"/><path d="m139.54 386.753h-14.526c-10.184 0-20.011 1.52-29.274 4.337l-5.351 58.863c-.42 4.617 2.876 8.744 7.472 9.356l9.862 1.312c3.873.516 6.919 3.564 7.432 7.437l5.796 43.768h63.797z" fill="#bfbfbf"/><path d="m116.859 480.918 4.093 30.908h63.797l-11.172-30.908z" fill="#acacac"/><path d="m232.004 386.753h14.528c10.184 0 20.862 2.436 30.125 5.252l4.5 57.948c.42 4.617-2.876 8.744-7.472 9.356l-9.862 1.312c-3.873.516-6.919 3.564-7.432 7.437l-5.796 43.768h-63.797z" fill="#bfbfbf"/><path d="m254.688 480.918-4.093 30.908h-63.797l11.172-30.908z" fill="#acacac"/></g><path d="m189.51 0h-9.309c-85.174 0-154.221 69.047-154.221 154.221v181.257c0 3.67 2.975 6.644 6.644 6.644h304.462c3.67 0 6.644-2.975 6.644-6.644v-181.257c.001-85.174-69.046-154.221-154.22-154.221z" fill="#c86d36"/><path d="m280.676 32.147c20.173 26.638 32.147 59.828 32.147 95.819v176.402c0 3.78-3.065 6.845-6.845 6.845h-279.998v24.063c0 3.781 3.065 6.845 6.845 6.845h304.061c3.78 0 6.845-3.064 6.845-6.845v-176.401c0-51.753-24.751-97.72-63.055-126.728z" fill="#ac5e2e"/><circle cx="309.396" cy="216.182" fill="#ffe5c2" r="30.148"/><path d="m245.997 332.614c-36.15 26.936-86.132 26.936-122.282 0-37.042-27.6-58.8-70.643-58.8-116.317v-31.237c13.024-23.121 32.151-18.708 54.419-33.537 24.092-16.044 26.143-50.374 26.143-50.374 2.408 15.56 16.771 35.839 32.201 43.963 53.856 28.354 106.959-15.054 127.119 43.962v27.223c0 45.674-21.759 88.716-58.8 116.317z" fill="#ffe5c2"/><path d="m232.95 155.973c12.113.997 22.645 4.337 30.838 14.113 6.7 7.995 10.101 18.247 10.101 28.679v17.532c0 45.675-21.651 88.862-58.8 116.317-15.963 11.798-42.77 14.765-64.971 14.152 31.704 11.384 67.925 6.677 95.879-14.152 37.042-27.601 58.8-70.643 58.8-116.317v-27.223c-13.052-38.208-39.914-33.487-71.847-33.101z" fill="#fed2a4"/><circle cx="60.315" cy="216.182" fill="#ffe5c2" r="30.148"/><circle cx="437.292" cy="289.978" fill="#00f2a6" r="19.033"/><circle cx="391.246" cy="241.119" fill="#00f2a6" r="16.483"/><path d="m447.163 432.398c-5.684-4.962-8.945-12.139-8.945-19.684v-39.684l-25.491-10.302-25.491 10.302v39.684c0 7.545-3.261 14.722-8.945 19.684l-18.995 16.584 52.039 10.302 54.823-10.302z" fill="#ebebeb"/><path d="m337.966 479.479v11.917c0 11.379 9.225 20.604 20.604 20.604h108.315c11.379 0 20.604-9.225 20.604-20.604v-11.917c0-7.545-3.261-14.721-8.945-19.683l-12.386-10.814h-106.861l-12.386 10.814c-5.683 4.962-8.945 12.139-8.945 19.683z" fill="#05e39c"/><path d="m478.544 459.796-12.386-10.814v22.335c0 5.398-4.376 9.774-9.774 9.774h-118.418v10.305c0 11.379 9.225 20.604 20.604 20.604h108.315c11.379 0 20.604-9.225 20.604-20.604v-11.917c0-7.544-3.262-14.721-8.945-19.683z" fill="#0ed290"/><path d="m233.897 222.749c-4.268 0-7.726-3.459-7.726-7.726v-7.876c0-4.268 3.459-7.726 7.726-7.726s7.726 3.459 7.726 7.726v7.876c.001 4.268-3.458 7.726-7.726 7.726z" fill="#686868"/><path d="m135.626 222.749c-4.268 0-7.726-3.459-7.726-7.726v-7.876c0-4.268 3.459-7.726 7.726-7.726s7.726 3.459 7.726 7.726v7.876c0 4.268-3.459 7.726-7.726 7.726z" fill="#686868"/><path d="m184.761 304.956c-10.697 0-20.653-4.038-28.035-11.37-3.028-3.007-3.044-7.899-.037-10.927 3.007-3.027 7.899-3.045 10.927-.037 4.403 4.373 10.652 6.881 17.146 6.881 6.493 0 12.742-2.508 17.146-6.881 3.028-3.007 7.921-2.989 10.927.037 3.007 3.028 2.99 7.921-.037 10.927-7.385 7.332-17.341 11.37-28.037 11.37z" fill="#fac094"/><path d="m184.856 271.343c-4.976 0-9.789-.965-14.306-2.866-3.933-1.656-5.778-6.187-4.122-10.12 1.656-3.932 6.185-5.779 10.12-4.122 2.608 1.099 5.402 1.655 8.308 1.655 2.852 0 5.601-.537 8.171-1.598 3.949-1.626 8.462.253 10.089 4.197 1.627 3.945-.253 8.462-4.197 10.089-4.448 1.834-9.18 2.765-14.063 2.765z" fill="#fac094"/><path d="m252.973 150.487c-30.216 0-55.23 22.627-59.032 51.824h-18.17c-3.802-29.197-28.816-51.824-59.032-51.824-32.836 0-59.55 26.714-59.55 59.55s26.714 59.55 59.55 59.55c30.216 0 55.23-22.627 59.032-51.824h18.17c3.802 29.197 28.816 51.824 59.032 51.824 32.836 0 59.55-26.714 59.55-59.55s-26.714-59.55-59.55-59.55zm-136.235 103.648c-24.315 0-44.097-19.782-44.097-44.098s19.782-44.098 44.097-44.098c24.316 0 44.098 19.782 44.098 44.098s-19.782 44.098-44.098 44.098zm136.235 0c-24.316 0-44.098-19.782-44.098-44.098s19.782-44.098 44.098-44.098 44.098 19.782 44.098 44.098-19.782 44.098-44.098 44.098z" fill="#904d24"/><path d="m424.664 214.875c-11.021.019-9.302-17.485 1.505-15.309 8.949 1.565 7.576 15.512-1.505 15.309z" fill="#00f2a6"/><path d="m439.004 374.061h-52.552c-4.663 0-8.444-3.78-8.444-8.444v-17.113c0-4.663 3.78-8.444 8.444-8.444h52.552c4.663 0 8.444 3.78 8.444 8.444v17.113c0 4.663-3.781 8.444-8.444 8.444z" fill="#cecece"/></g><g/><g/><g/><g/><g/><g/><g/><g/><g/><g/><g/><g/><g/><g/><g/></svg>